<svg xmlns="http://www.w3.org/2000/svg" aria-hidden="true" style="position:absolute;width:0;height:0;overflow:hidden"><defs><symbol id="icon-twitter" viewBox="0 0 20 20"><path d="M20 3.799c-0.688 0.308-1.485 0.536-2.32 0.643l-0.043 0.004c0.85-0.51 1.489-1.299 1.796-2.237l0.008-0.029c-0.748 0.452-1.62 0.796-2.547 0.983l-0.053 0.009c-0.75-0.799-1.813-1.297-2.992-1.297-2.264 0-4.099 1.835-4.099 4.099 0 0.001 0 0.002 0 0.002v-0c0 0.325 0.027 0.638 0.095 0.935-3.409-0.166-6.425-1.8-8.451-4.288-0.353 0.593-0.562 1.307-0.564 2.070v0.001c0 1.42 0.732 2.679 1.821 3.407-0.682-0.019-1.317-0.203-1.871-0.515l0.020 0.011v0.045c0.002 1.978 1.398 3.63 3.258 4.025l0.027 0.005c-0.312 0.085-0.67 0.134-1.039 0.134-0.013 0-0.025-0-0.038-0l0.002 0c-0.262 0-0.527-0.015-0.776-0.070 0.531 1.624 2.038 2.818 3.831 2.856-1.384 1.091-3.153 1.75-5.076 1.75-0.003 0-0.005 0-0.008 0h0c-0.012 0-0.025 0-0.039 0-0.332 0-0.659-0.021-0.98-0.062l0.038 0.004c1.766 1.154 3.929 1.84 6.252 1.84 0.013 0 0.026-0 0.040-0h-0.002c7.545 0 11.67-6.25 11.67-11.668 0-0.18-0.006-0.356-0.015-0.53 0.812-0.585 1.494-1.29 2.036-2.097l0.019-0.029z"></path></symbol><symbol id="icon-telephone" viewBox="0 0 10 16"><path d="M8.5 0h-7c-0.827 0-1.5 0.673-1.5 1.5v13c0 0.827 0.673 1.5 1.5 1.5h7c0.827 0 1.5-0.673 1.5-1.5v-13c0-0.827-0.673-1.5-1.5-1.5zM1.5 1h7c0.276 0 0.5 0.224 0.5 0.5v0 10.5h-8v-10.5c0-0.276 0.224-0.5 0.5-0.5v0zM8.5 15h-7c-0.276 0-0.5-0.224-0.5-0.5v0-1.5h8v1.5c0 0.276-0.224 0.5-0.5 0.5v0z"></path></symbol><symbol id="icon-punctuality" viewBox="0 0 32 32"><path fill="#212121" d="M31.296 15.301C31.295 6.849 24.441-.002 15.988 0S.685 6.855.687 15.308c.002 6.788 4.422 12.543 10.541 14.545l.108.031a.667.667 0 0 0 .529-.065.636.636 0 0 0 .283-.357l3.865-12.25a1.913 1.913 0 1 0-.852-3.63l.011-.005-5.106-5.107a.638.638 0 0 0-.902.902l5.103 5.109a1.847 1.847 0 0 0-.191.826c0 .602.283 1.137.723 1.48l.004.003-3.682 11.673C3.843 25.782.117 17.709 2.797 10.431S13.551-.573 20.829 2.108c7.278 2.681 11.004 10.754 8.323 18.032-1.345 3.581-4.003 6.406-7.374 7.938l-.088.036-.398-1.874a.639.639 0 0 0-1.05-.343l.001-.001-3.837 3.426a.637.637 0 0 0 .227 1.083l.005.001 4.899 1.563a.637.637 0 0 0 .818-.744l.001.004-.391-1.839c5.528-2.374 9.329-7.772 9.329-14.057v-.034.002zm-15.304-.637a.638.638 0 0 1 0 1.276.638.638 0 0 1 0-1.276zm2.1 14.864 2.184-1.948.603 2.84-2.787-.892z" style="fill:var(--color3, #212121)"/><path fill="#2196f3" d="M15.354 3.185V4.46a.638.638 0 0 0 1.276 0V3.185a.638.638 0 1 0-1.276 0zM3.876 14.664a.638.638 0 0 0 0 1.276h1.275a.638.638 0 0 0 0-1.276H3.876zm24.232 1.275a.638.638 0 0 0 0-1.276h-1.275a.638.638 0 0 0 0 1.276h1.275z" style="fill:var(--color4, #2196f3)"/></symbol><symbol id="icon-planning" viewBox="0 0 32 32"><path fill="#2196f3" d="M14.926 14.965h1.066v4.798h-1.066v-4.798zm4.264 2.132h1.066v2.665H19.19v-2.665zm-8.529 1.599h1.066v1.066h-1.066v-1.066zm-3.198-.533h1.066v1.599H7.463v-1.599z" style="fill:var(--color4, #2196f3)"/><path fill="#212121" d="M1.599 28.291h25.586a1.6 1.6 0 0 0 1.599-1.599V24.56a1.6 1.6 0 0 0-1.599-1.599h-.533V9.667l3.028-2.868a1.608 1.608 0 1 0-.742-.752l-.004-.01-2.281 2.162v-1.23a1.6 1.6 0 0 0-1.599-1.599H3.731a1.6 1.6 0 0 0-1.599 1.599v15.992h-.533A1.6 1.6 0 0 0 0 24.56v2.132a1.6 1.6 0 0 0 1.599 1.599zM30.384 4.837a.533.533 0 0 1 0 1.066.533.533 0 0 1 0-1.066zM3.198 6.969c0-.294.239-.533.533-.533h21.323c.294 0 .533.239.533.533v2.239l-1.066 1.013V8.036a.534.534 0 0 0-.534-.534H4.798a.534.534 0 0 0-.534.533v13.327c0 .294.239.533.534.533h19.189a.534.534 0 0 0 .534-.533v-9.675l1.066-1.01V22.96H3.198V6.969zm4.798 6.93h-.005a1.6 1.6 0 1 0 1.112 2.748l1.853.93a.535.535 0 0 0 .636-.122l3.939-4.432 3.872 2.902a.534.534 0 0 0 .686-.039l3.365-3.188v8.131H5.331V8.568h18.123v2.661l-3.771 3.572-3.904-2.927a.534.534 0 0 0-.718.071v.001l-3.993 4.493-1.493-.746c.011-.064.017-.128.02-.193a1.6 1.6 0 0 0-1.599-1.599zm.533 1.599a.533.533 0 0 1-1.066 0 .533.533 0 0 1 1.066 0zm3.198 8.528h5.33v.533a.533.533 0 0 1-.533.533h-4.265a.533.533 0 0 1-.533-.533v-.533zm-10.66.534c0-.294.238-.533.533-.533h9.062v.533a1.6 1.6 0 0 0 1.599 1.599h4.265a1.6 1.6 0 0 0 1.599-1.599v-.533h9.062c.294 0 .533.239.533.533v2.132a.533.533 0 0 1-.533.533H1.601a.533.533 0 0 1-.533-.533V24.56z" style="fill:var(--color3, #212121)"/></symbol><symbol id="icon-modern-technologies" viewBox="0 0 32 32"><path fill="#2196f3" d="M31.974 4.524a.535.535 0 0 0-.427-.362h-.003l-1.911-.278-.855-1.731c-.179-.365-.777-.365-.956 0l-.855 1.731-1.911.278a.534.534 0 0 0-.296.91l1.383 1.348-.326 1.903a.532.532 0 0 0 .774.562l1.709-.899 1.709.899a.534.534 0 0 0 .773-.565v.003l-.326-1.903 1.383-1.348a.535.535 0 0 0 .134-.55l.001.004zm-2.463 1.327a.53.53 0 0 0-.153.472l.191 1.114-1-.526a.525.525 0 0 0-.501.001l.003-.001-1 .526.191-1.114a.53.53 0 0 0-.152-.472l-.811-.79 1.119-.162a.532.532 0 0 0 .402-.292l.5-1.013.5 1.013a.532.532 0 0 0 .402.292l1.119.162-.809.79zm-3.377 14.671h-1.067v1.067h1.067v-1.067zm0 2.134h-1.067v1.066h1.067v-1.066zm1.066-1.067h-1.067v1.067H27.2v-1.067zm-2.133 0H24v1.067h1.067v-1.067zm-2.667 4.8h-1.067v1.067H22.4v-1.067zm0 2.134h-1.067v1.067H22.4v-1.067zm1.067-1.067H22.4v1.067h1.067v-1.067zm-2.133 0h-1.067v1.067h1.067v-1.067zM16 24.256h-1.066v1.067H16v-1.067zm0 2.133h-1.066v1.067H16v-1.067zm1.067-1.067H16v1.067h1.067v-1.067zm-2.133 0h-1.067v1.067h1.067v-1.067zm-9.067-19.2H4.801v1.066h1.066V6.122zm0 2.134H4.801v1.066h1.066V8.256zm1.066-1.067H5.866v1.067h1.066V7.189zm-2.133 0H3.733v1.067H4.8V7.189z" style="fill:var(--color4, #2196f3)"/><path fill="#212121" d="M24.715 14.16a1.774 1.774 0 0 0-1.179-.703l-.009-.001a1.769 1.769 0 0 0-1.344.355l.004-.003-1.253.96-1.898 1.417-1.358-.541c2.421-1.086 4.113-3.508 4.113-6.32 0-3.823-3.122-6.934-6.961-6.934S7.869 5.5 7.869 9.324c0 1.386.415 2.674 1.12 3.759l-2.768-.024c-.009 0-.016.005-.023.005a.511.511 0 0 0-.159.033l.004-.001c-.013.005-.026.007-.038.013-.006.003-.013.003-.019.006l-3.233 1.596-.001.001-1.893.91a.5.5 0 0 0-.065.036l.001-.001a1.782 1.782 0 0 0-.594 2.306l-.005-.01c.22.424.592.742 1.043.885l.013.003a1.772 1.772 0 0 0 1.388-.133l-.009.005 1.388-.738 2.264-1.169 1.357-.008-5.442 5.415-.001.001-1.339 1.333a1.643 1.643 0 0 0-.491 1.173v.005a1.668 1.668 0 0 0 1.667 1.664h.002a1.67 1.67 0 0 0 1.18-.485l1.314-1.309 1.741-1.3.901.897L4.07 27.28a1.643 1.643 0 0 0-.491 1.173v.004a1.662 1.662 0 0 0 1.666 1.664h.003a1.67 1.67 0 0 0 1.18-.485l4.488-4.472c.007-.006.016-.009.022-.016l5.166-5.658 3.471.494a.474.474 0 0 0 .262-.032c.017-.006.032-.015.049-.023.019-.01.039-.015.058-.027l3.213-2.133c.012-.008.018-.021.029-.03.013-.01.029-.014.041-.026l1.271-1.191c.348-.326.564-.787.564-1.3 0-.4-.132-.769-.355-1.066l.003.005zM2.13 17.77a.706.706 0 0 1-.564.05l.005.001a.717.717 0 0 1-.215-1.258l.002-.001 1.314-.632.316.924.133.389-.992.527zm3.497-1.828-1.548.8-.255-.746-.184-.537 2.027-1.001-.04 1.484zm15.1-6.62c0 .918-.219 1.785-.599 2.56l-4.181-1.899a1.865 1.865 0 0 0-.782-1.384l-.006-.004 1.464-4.861c2.377.757 4.104 2.975 4.104 5.588zm-11.789 0c0-3.235 2.644-5.867 5.894-5.867.253 0 .5.022.745.053l-1.432 4.753c-.019 0-.037-.006-.057-.006h-.001a1.872 1.872 0 0 0-1.872 1.867 1.873 1.873 0 0 0 1.872 1.867h.001c.695 0 1.295-.383 1.618-.944l3.863 1.755a5.891 5.891 0 0 1-4.737 2.39c-3.25 0-5.894-2.632-5.894-5.867zm5.957.8c0 .441-.362.8-.806.8h-.001a.804.804 0 0 1-.804-.8c0-.441.361-.8.806-.8s.806.359.806.8zM2.464 25.146a.606.606 0 0 1-.855.001.591.591 0 0 1 0-.844l.962-.959.852.848-.959.954zm3.214 3.734a.606.606 0 0 1-.855.001.591.591 0 0 1 0-.844l.963-.959.852.848-.96.955zm3.482-3.469-.001.001-1.765 1.76-.852-.848 1.765-1.757a.527.527 0 0 0 .09-.136c.007-.014.02-.026.026-.04.016-.041.019-.085.026-.128.003-.025.014-.048.014-.073 0-.035-.013-.07-.02-.105-.006-.032-.006-.064-.019-.096a.536.536 0 0 0-.092-.138c-.01-.012-.014-.026-.025-.038h-.001l-.001-.002-1.607-1.6c-.017-.017-.039-.024-.058-.038a.491.491 0 0 0-.084-.056l-.003-.001a.527.527 0 0 0-.09-.031l-.003-.001a.502.502 0 0 0-.101-.02h-.025a.603.603 0 0 0-.075.005h.003c-.036.005-.069.009-.104.021s-.064.027-.094.045c-.02.011-.043.015-.061.029l-1.774 1.324-.901-.897 2.399-2.386 4.36 4.289-.928.919zm6.819-7.017c-.016-.002-.03.004-.046.003l-.027-.001a.562.562 0 0 0-.092.008h.003a.484.484 0 0 0-.187.07l.002-.001a.492.492 0 0 0-.083.061c-.013.011-.028.016-.04.029l-4.698 5.146-4.328-4.256 2.833-2.818a.535.535 0 0 0-.378-.911h-.002l-2.219.013.028-1.607 3.104.027a6.928 6.928 0 0 0 4.978 2.101h.003c.438 0 .864-.046 1.28-.122.04.032.08.064.129.085l2.41.96.152.758.178.886-3.003-.427zm4.041.178-.313-1.558 1.446-1.08.946 1.257-2.08 1.381zm3.753-2.831-.837.785-.931-1.236.831-.637a.735.735 0 0 1 .543-.143.718.718 0 0 1 .621.71.71.71 0 0 1-.226.521z" style="fill:var(--color3, #212121)"/><path fill="#212121" d="m13.602 18.544-2.143-2.134a.53.53 0 0 0-.752 0l-2.143 2.133a.535.535 0 0 0 0 .756l2.142 2.134a.53.53 0 0 0 .752 0l2.143-2.134a.532.532 0 0 0 0-.756zm-2.519 1.759-1.387-1.381 1.386-1.381 1.387 1.381-1.387 1.381zm6.081-15.232-.258 1.036c.071.018 1.738.452 1.738 2.149h1.067c0-2.017-1.666-2.965-2.547-3.184zm2.547 4.251h-1.067v1.066h1.067V9.322z" style="fill:var(--color3, #212121)"/></symbol><symbol id="icon-linkedin" viewBox="0 0 20 20"><path d="M19.995 20h0.005v-7.336c0-3.588-0.772-6.352-4.967-6.352-2.017 0-3.37 1.106-3.923 2.156h-0.058v-1.821h-3.978v13.352h4.142v-6.611c0-1.741 0.33-3.425 2.486-3.425 2.124 0 2.156 1.987 2.156 3.536v6.501h4.137zM0.33 6.647h4.147v13.353h-4.147v-13.353zM2.402 0c-1.327 0-2.402 1.075-2.402 2.402v0c0 1.325 1.076 2.424 2.402 2.424s2.401-1.098 2.401-2.424c-0.001-1.326-1.075-2.401-2.401-2.402h-0z"></path></symbol><symbol id="icon-instagram" viewBox="0 0 20 20"><path d="M19.98 5.88c-0.046-1.063-0.218-1.793-0.464-2.426-0.265-0.695-0.659-1.287-1.156-1.773l-0.001-0.001c-0.487-0.495-1.078-0.887-1.736-1.142l-0.034-0.011c-0.637-0.246-1.363-0.417-2.426-0.464-1.070-0.051-1.41-0.063-4.126-0.063s-3.055 0.012-4.122 0.059c-1.062 0.046-1.793 0.218-2.425 0.464-0.695 0.265-1.287 0.659-1.774 1.156l-0.001 0.001c-0.495 0.487-0.886 1.078-1.141 1.736l-0.011 0.034c-0.247 0.637-0.418 1.363-0.465 2.426-0.051 1.070-0.063 1.41-0.063 4.126s0.012 3.055 0.059 4.122c0.047 1.063 0.219 1.793 0.465 2.426 0.267 0.694 0.66 1.286 1.155 1.773l0.001 0.001c0.5 0.508 1.106 0.902 1.77 1.152 0.637 0.247 1.364 0.419 2.426 0.465 1.067 0.047 1.407 0.059 4.122 0.059s3.056-0.012 4.122-0.059c1.063-0.046 1.793-0.218 2.426-0.464 1.348-0.531 2.396-1.579 2.915-2.892l0.012-0.035c0.246-0.637 0.418-1.364 0.465-2.426 0.047-1.067 0.058-1.407 0.058-4.122s-0.004-3.055-0.050-4.122zM18.18 14.046c-0.044 0.977-0.208 1.504-0.344 1.856-0.345 0.875-1.025 1.554-1.877 1.89l-0.023 0.008c-0.35 0.137-0.882 0.301-1.855 0.344-1.055 0.047-1.371 0.059-4.040 0.059s-2.989-0.012-4.040-0.059c-0.977-0.043-1.504-0.207-1.856-0.344-0.45-0.168-0.834-0.422-1.147-0.745l-0.001-0.001c-0.323-0.315-0.577-0.698-0.74-1.127l-0.007-0.021c-0.136-0.352-0.3-0.883-0.343-1.856-0.047-1.055-0.059-1.372-0.059-4.040s0.012-2.99 0.059-4.040c0.043-0.977 0.207-1.504 0.343-1.856 0.168-0.451 0.424-0.836 0.749-1.148l0.001-0.001c0.315-0.323 0.699-0.577 1.129-0.739l0.021-0.007c0.35-0.137 0.882-0.3 1.855-0.344 1.055-0.046 1.372-0.058 4.040-0.058 2.672 0 2.989 0.012 4.040 0.058 0.977 0.043 1.504 0.207 1.856 0.344 0.433 0.16 0.828 0.414 1.148 0.746 0.332 0.325 0.586 0.715 0.747 1.15 0.136 0.35 0.3 0.882 0.343 1.855 0.047 1.055 0.059 1.371 0.059 4.040s-0.012 2.98-0.059 4.036z"></path><path d="M10.037 4.864c-2.837 0.001-5.136 2.301-5.137 5.138v0c0.057 2.794 2.335 5.038 5.138 5.038s5.081-2.243 5.138-5.032l0-0.005c-0.001-2.837-2.301-5.137-5.138-5.138h-0zM10.037 13.334c-1.841-0-3.333-1.492-3.333-3.333s1.492-3.333 3.333-3.333c0 0 0 0 0.001 0h-0c1.841 0 3.333 1.492 3.333 3.333s-1.492 3.333-3.333 3.333v0zM16.578 4.661c0 0.663-0.537 1.2-1.2 1.2s-1.2-0.537-1.2-1.2v0c0-0.663 0.537-1.2 1.2-1.2s1.2 0.537 1.2 1.2v0z"></path></symbol><symbol id="icon-facebook" viewBox="0 0 20 20"><path d="M13.33 3.32h1.827v-3.18c-0.77-0.089-1.663-0.14-2.567-0.14-0.033 0-0.065 0-0.098 0l0.005-0c-2.633 0-4.437 1.656-4.437 4.7v2.8h-2.904v3.555h2.904v8.945h3.562v-8.944h2.787l0.443-3.555h-3.231v-2.451c0-1.027 0.277-1.73 1.709-1.73z"></path></symbol><symbol id="icon-email" viewBox="0 0 16 12"><path d="M14.5 0h-13C.673 0 0 .673 0 1.5v9c0 .827.673 1.5 1.5 1.5h13c.827 0 1.5-.673 1.5-1.5v-9c0-.827-.673-1.5-1.5-1.5Zm0 1c.068 0 .133.014.192.039L8 6.839l-6.692-5.8A.498.498 0 0 1 1.5 1h13Zm0 10h-13a.5.5 0 0 1-.5-.5V2.095l6.672 5.783a.5.5 0 0 0 .656 0L15 2.095V10.5a.5.5 0 0 1-.5.5Z"/></symbol><symbol id="icon-details" viewBox="0 0 32 32"><path fill="#212121" d="m30.773 22.098-8.443-8.505.937-4.616c.225.09.485.144.758.146h.033a2.16 2.16 0 1 0-2.029-1.42l-.005-.015-4.96.606L8.973.161a.53.53 0 0 0-.376-.16.536.536 0 0 0-.373.155L6.712 1.66a.535.535 0 0 0 0 .754l.814.825C6.383 5.301 5.71 7.761 5.71 10.378c0 4.106 1.656 7.824 4.336 10.525l-.001-.001a.49.49 0 0 0 .146.097 2.986 2.986 0 0 0-.052.546v6.188h-6.4a2.669 2.669 0 0 0-2.667 2.666v1.067c0 .295.239.534.534.534H26.14a.534.534 0 0 0 .533-.534v-1.067a2.67 2.67 0 0 0-2.666-2.666h-6.4v-2.742a14.784 14.784 0 0 0 10.166-1.502l-.077.039.818.823a.534.534 0 0 0 .376.16.536.536 0 0 0 .373-.155l1.512-1.504a.535.535 0 0 0 0-.754zM23.28 6.233a1.067 1.067 0 1 1 .752 1.822h-.004a1.066 1.066 0 0 1-.747-1.822h-.002zm-1.256 3.504-.598 2.946-1.175-1.183 1.774-1.763zm-.605-.902-1.92 1.909-1.486-1.493 3.406-.416zM24.004 28.8a1.6 1.6 0 0 1 1.6 1.6v.534H2.138V30.4a1.6 1.6 0 0 1 1.6-1.6h20.267zm-7.466-2.134v1.067h-5.334v-1.067h5.334zM11.204 25.6v-4.053c0-1.294 1.196-2.346 2.667-2.346s2.667 1.053 2.667 2.346V25.6h-5.334zm6.4-1.696v-2.357c0-1.882-1.675-3.413-3.733-3.413h-.058c-1.353 0-2.54.707-3.213 1.771l-.009.016a13.817 13.817 0 0 1-3.812-9.55c0-2.314.567-4.496 1.569-6.414l-.036.077 18.602 18.709c-1.823.947-3.979 1.502-6.266 1.502-1.079 0-2.128-.124-3.136-.357l.093.018zm11.289-.684L7.836 2.039l.754-.752 7.935 7.98c.004 0 .006.007.01.01l13.114 13.191-.757.752z" style="fill:var(--color3, #212121)"/><path fill="#2196f3" d="M13.876 20.267h-.007a1.6 1.6 0 0 0-.003 3.2h.007a1.6 1.6 0 0 0 .002-3.2zm.373 1.978a.534.534 0 1 1-.378-.912.533.533 0 0 1 .374.911h.005z" style="fill:var(--color4, #2196f3)"/></symbol><symbol id="icon-client-logo-6" viewBox="0 0 106 60"><path d="M53.425 27.408c-0.381-0.492-0.611-1.117-0.611-1.797 0-0.067 0.002-0.134 0.007-0.2l-0 0.009v-2.884c0-0.883 0.2-1.555 0.602-2.015 0.4-0.46 1.089-0.688 2.065-0.686 0.917 0 1.569 0.196 1.953 0.587 0.42 0.499 0.625 1.109 0.578 1.724v0.678h-1.64v-0.687c0.005-0.224-0.010-0.449-0.048-0.671-0.028-0.162-0.113-0.301-0.234-0.398l-0.001-0.001c-0.147-0.099-0.329-0.158-0.524-0.158-0.025 0-0.049 0.001-0.073 0.003l0.003-0c-0.021-0.002-0.046-0.003-0.071-0.003-0.206 0-0.398 0.062-0.558 0.169l0.004-0.002c-0.136 0.109-0.233 0.261-0.271 0.435l-0.001 0.005c-0.042 0.198-0.065 0.425-0.065 0.657 0 0.020 0 0.039 0.001 0.059l-0-0.003v3.499c-0.026 0.337 0.047 0.675 0.21 0.982 0.085 0.105 0.196 0.187 0.323 0.236l0.005 0.002c0.096 0.038 0.208 0.061 0.324 0.061 0.035 0 0.070-0.002 0.104-0.006l-0.004 0c0.021 0.002 0.045 0.003 0.069 0.003 0.191 0 0.369-0.060 0.514-0.163l-0.003 0.002c0.127-0.106 0.215-0.253 0.244-0.421l0.001-0.004c0.038-0.232 0.056-0.467 0.051-0.701v-0.71h1.641v0.648c0.004 0.051 0.006 0.111 0.006 0.171 0 0.623-0.216 1.195-0.577 1.647l0.004-0.005c-0.377 0.428-1.020 0.642-1.964 0.642s-1.658-0.229-2.062-0.704zM60.257 27.438c-0.415-0.45-0.622-1.103-0.622-1.968v-3.033c0-0.857 0.207-1.505 0.622-1.945s1.107-0.659 2.079-0.657c0.965 0 1.654 0.22 2.069 0.657 0.414 0.44 0.625 1.088 0.625 1.945v3.032c0 0.857-0.21 1.514-0.632 1.966s-1.107 0.677-2.062 0.677-1.661-0.229-2.080-0.674zM63.1 26.71c0.149-0.28 0.216-0.589 0.197-0.897v-3.714c0.002-0.030 0.003-0.065 0.003-0.1 0-0.286-0.073-0.554-0.2-0.789l0.004 0.009c-0.087-0.107-0.2-0.19-0.33-0.239l-0.005-0.002c-0.095-0.037-0.206-0.059-0.322-0.059-0.039 0-0.078 0.003-0.116 0.007l0.005-0c-0.033-0.004-0.072-0.007-0.111-0.007-0.116 0-0.227 0.022-0.329 0.061l0.006-0.002c-0.136 0.051-0.249 0.134-0.336 0.24l-0.001 0.001c-0.15 0.275-0.217 0.578-0.197 0.88v3.731c-0.020 0.309 0.047 0.617 0.197 0.898 0.095 0.094 0.214 0.17 0.346 0.222 0.125 0.050 0.27 0.079 0.422 0.079s0.297-0.029 0.429-0.082l-0.008 0.003c0.133-0.052 0.25-0.128 0.346-0.222v-0.018zM67.004 19.924h1.766l1.328 5.595 1.36-5.595h1.718l0.174 8.076h-1.271l-0.136-5.613-1.311 5.613h-1.020l-1.358-5.634-0.126 5.634h-1.284l0.16-8.076zM75.33 19.924h2.752c1.585 0 2.378 0.764 2.378 2.293 0 1.464-0.835 2.196-2.504 2.194h-0.937v3.589h-1.699l0.010-8.077zM77.681 23.375c0.168 0.019 0.338 0.006 0.5-0.039 0.16-0.044 0.31-0.117 0.434-0.216 0.195-0.273 0.281-0.593 0.245-0.912 0.001-0.026 0.002-0.058 0.002-0.089 0-0.229-0.030-0.451-0.088-0.662l0.004 0.018c-0.027-0.086-0.070-0.16-0.126-0.223l0 0.001c-0.059-0.066-0.13-0.12-0.21-0.16l-0.004-0.002c-0.198-0.084-0.428-0.132-0.669-0.132-0.031 0-0.062 0.001-0.093 0.002l0.004-0h-0.659v2.414h0.66zM82.91 19.924h1.824l1.872 8.076h-1.584l-0.37-1.862h-1.627l-0.38 1.862h-1.607l1.871-8.076zM84.469 25.203l-0.636-3.39-0.635 3.39h1.27zM88.117 19.924h1.19l2.275 4.607v-4.607h1.41v8.076h-1.131l-2.29-4.81v4.81h-1.457l0.003-8.076zM96.294 24.92l-1.892-4.985h1.594l1.155 3.203 1.083-3.203h1.56l-1.869 4.986v3.079h-1.63v-3.080zM56.048 31.532v0.422h-1.386v3.282h-0.581v-3.282h-1.393v-0.422h3.36zM60.393 35.236h-0.449c-0.004 0-0.008 0-0.012 0-0.042 0-0.082-0.013-0.114-0.036l0.001 0c-0.032-0.021-0.058-0.049-0.073-0.084l-0-0.001-0.401-0.88h-1.923l-0.4 0.88c-0.013 0.039-0.034 0.073-0.062 0.1l-0 0c-0.033 0.022-0.073 0.035-0.116 0.035-0.004 0-0.007-0-0.011-0h-0.448l1.699-3.704h0.59l1.72 3.69zM57.58 33.861h1.603l-0.68-1.508c-0.043-0.095-0.086-0.211-0.12-0.33l-0.005-0.019c-0.024 0.070-0.044 0.138-0.064 0.197l-0.062 0.155-0.672 1.505zM63.321 34.872c0.107 0.005 0.213 0.005 0.32 0 0.091-0.008 0.182-0.023 0.271-0.044 0.083-0.017 0.165-0.040 0.245-0.067 0.075-0.027 0.15-0.059 0.227-0.091v-0.833h-0.679c-0.002 0-0.004 0-0.006 0-0.033 0-0.062-0.011-0.086-0.030l0 0c-0.011-0.008-0.020-0.018-0.026-0.030l-0-0c-0.005-0.010-0.008-0.021-0.008-0.034 0-0.001 0-0.002 0-0.004v0-0.284h1.318v1.42c-0.206 0.128-0.444 0.231-0.698 0.297l-0.018 0.004c-0.14 0.036-0.281 0.061-0.425 0.077-0.165 0.016-0.33 0.023-0.496 0.023-0.006 0-0.014 0-0.022 0-0.299 0-0.586-0.051-0.853-0.144l0.018 0.006c-0.262-0.091-0.488-0.223-0.683-0.389l0.003 0.002c-0.182-0.161-0.329-0.356-0.433-0.576l-0.005-0.011c-0.099-0.219-0.156-0.475-0.156-0.744 0-0.008 0-0.017 0-0.025v0.001c-0-0.007-0-0.015-0-0.023 0-0.271 0.056-0.53 0.158-0.764l-0.005 0.012c0.097-0.22 0.247-0.42 0.438-0.587 0.194-0.167 0.425-0.297 0.68-0.384 0.29-0.095 0.6-0.142 0.91-0.138 0.158 0 0.316 0.010 0.472 0.032 0.138 0.020 0.274 0.051 0.404 0.094 0.12 0.038 0.233 0.088 0.34 0.147 0.104 0.058 0.203 0.122 0.296 0.193l-0.163 0.229c-0.014 0.021-0.032 0.038-0.054 0.050l-0.001 0c-0.023 0.012-0.049 0.020-0.078 0.020h-0c-0.039-0.001-0.075-0.012-0.106-0.030l0.001 0.001c-0.069-0.032-0.124-0.062-0.177-0.093l0.010 0.005c-0.064-0.035-0.139-0.069-0.216-0.097l-0.011-0.003c-0.087-0.031-0.192-0.060-0.3-0.080l-0.013-0.002c-0.123-0.020-0.264-0.032-0.408-0.032-0.008 0-0.016 0-0.024 0h0.001c-0.006-0-0.013-0-0.021-0-0.227 0-0.446 0.038-0.649 0.107l0.014-0.004c-0.189 0.065-0.36 0.165-0.5 0.293-0.134 0.126-0.241 0.279-0.312 0.451l-0.003 0.009c-0.072 0.183-0.114 0.396-0.114 0.618s0.042 0.434 0.118 0.629l-0.004-0.012c0.074 0.175 0.19 0.333 0.34 0.467 0.139 0.127 0.308 0.227 0.495 0.293 0.216 0.064 0.445 0.089 0.673 0.073zM68.736 34.814h1.855v0.422h-2.421v-3.704h0.58l-0.013 3.282zM72.52 35.236h-0.58v-3.704h0.58v3.704zM74.681 31.55c0.035 0.017 0.064 0.039 0.089 0.067l0 0 2.483 2.792c-0.002-0.020-0.002-0.043-0.002-0.066s0.001-0.046 0.003-0.069l-0 0.003v-2.76h0.506v3.72h-0.292c-0.006 0-0.012 0.001-0.019 0.001-0.039 0-0.075-0.008-0.109-0.022l0.002 0.001c-0.035-0.019-0.065-0.042-0.091-0.070l-0-0-2.48-2.79v2.88h-0.486v-3.704h0.302c0.033 0 0.066 0.006 0.095 0.017zM82.036 31.532v0.407h-2.058v1.223h1.668v0.393h-1.668v1.264h2.058v0.408h-2.656v-3.695h2.656zM21.162 8.656l25.795 6.323v22.158l-25.795-6.32v-22.162zM19.507 6.766v25.127l29.1 7.136v-25.124l-29.1-7.138z"></path><path d="M35.104 50.692l-29.104-7.142v-25.123l29.104 7.139v25.126z"></path><path d="M19.99 8.371l25.458 6.244-10.827 9.35-25.461-6.247 10.83-9.348zM19.507 6.767l-13.507 11.66 29.104 7.14 13.504-11.662-29.1-7.138zM36.741 49.279l11.867-10.249-11.868-2.91v13.16z"></path></symbol><symbol id="icon-client-logo-5" viewBox="0 0 106 60"><path d="M26.757 44.735c0.244 0.276 0.373 0.622 0.367 0.977 0.001 0.022 0.002 0.048 0.002 0.074 0 0.218-0.049 0.426-0.137 0.611l0.004-0.009c-0.105 0.223-0.253 0.409-0.435 0.556l-0.003 0.002c-0.414 0.285-0.926 0.456-1.479 0.456-0.061 0-0.121-0.002-0.18-0.006l0.008 0h-2.904v-6.19h2.844c0.050-0.003 0.109-0.005 0.168-0.005 0.523 0 1.010 0.155 1.418 0.422l-0.010-0.006c0.184 0.142 0.33 0.32 0.425 0.52 0.096 0.202 0.139 0.42 0.127 0.64 0.016 0.34-0.1 0.677-0.33 0.946-0.221 0.246-0.526 0.416-0.866 0.484 0.385 0.064 0.733 0.252 0.98 0.53zM23.351 43.801h1.216c0.276 0.018 0.55-0.055 0.773-0.206 0.088-0.073 0.159-0.165 0.205-0.27l0.002-0.005c0.036-0.080 0.057-0.173 0.057-0.271 0-0.021-0.001-0.041-0.003-0.061l0 0.003c0.001-0.016 0.002-0.034 0.002-0.052 0-0.1-0.021-0.195-0.059-0.281l0.002 0.005c-0.048-0.109-0.117-0.202-0.202-0.275l-0.001-0.001c-0.196-0.133-0.438-0.213-0.699-0.213-0.034 0-0.068 0.001-0.101 0.004l0.004-0h-1.197v1.625zM25.459 46.175c0.095-0.075 0.171-0.17 0.222-0.279l0.002-0.005c0.041-0.087 0.065-0.189 0.065-0.296 0-0.017-0.001-0.034-0.002-0.051l0 0.002c0.001-0.014 0.001-0.029 0.001-0.045 0-0.111-0.025-0.215-0.069-0.309l0.002 0.004c-0.055-0.114-0.132-0.209-0.226-0.284l-0.002-0.001c-0.209-0.142-0.467-0.226-0.745-0.226-0.029 0-0.057 0.001-0.085 0.003l0.004-0h-1.275v1.703h1.292c0.29 0.015 0.578-0.060 0.816-0.215zM32.57 47.397l-1.581-2.42h-0.595v2.42h-1.361v-6.191h2.577c0.055-0.004 0.119-0.006 0.184-0.006 0.606 0 1.166 0.2 1.616 0.537l-0.007-0.005c0.36 0.336 0.578 0.779 0.613 1.248 0.003 0.039 0.005 0.084 0.005 0.13 0 0.451-0.161 0.865-0.428 1.187l0.002-0.003c-0.32 0.329-0.743 0.556-1.217 0.628l-0.012 0.001 1.685 2.474h-1.48zM30.394 44.133h1.113c0.773 0 1.16-0.312 1.16-0.937 0.001-0.015 0.001-0.032 0.001-0.050 0-0.117-0.024-0.229-0.067-0.331l0.002 0.006c-0.052-0.126-0.127-0.233-0.221-0.321l-0-0c-0.211-0.16-0.479-0.256-0.768-0.256-0.038 0-0.076 0.002-0.113 0.005l0.005-0h-1.126l0.013 1.884zM40.010 46.15h-2.712l-0.479 1.247h-1.427l2.49-6.122h1.544l2.48 6.122h-1.426l-0.469-1.246zM39.647 45.213l-0.991-2.613-0.991 2.613h1.982zM49.322 47.397h-1.35l-3.030-4.21v4.21h-1.348v-6.192h1.348l3.030 4.235v-4.235h1.35v6.192zM57.033 45.915c-0.28 0.467-0.705 0.848-1.223 1.092-0.525 0.247-1.141 0.391-1.79 0.391-0.039 0-0.077-0.001-0.116-0.002l0.006 0h-2.404v-6.191h2.405c0.034-0.001 0.073-0.001 0.113-0.001 0.647 0 1.262 0.141 1.814 0.393l-0.027-0.011c0.517 0.24 0.943 0.616 1.222 1.080 0.278 0.504 0.423 1.060 0.423 1.625s-0.145 1.12-0.423 1.624zM55.487 45.767c0.367-0.384 0.593-0.904 0.597-1.477v-0.001c0-0.542-0.212-1.066-0.597-1.477-0.419-0.332-0.955-0.532-1.537-0.532-0.054 0-0.108 0.002-0.162 0.005l0.007-0h-0.938v4.008h0.938c0.046 0.003 0.101 0.005 0.155 0.005 0.582 0 1.118-0.2 1.542-0.535l-0.005 0.004zM40.856 6.767s17.438 6.028 17.069 14.751v14.754s-17.426-6.030-17.063-14.754l-0.006-14.751zM73.46 32.818c3.294-2.075 7.103-3.36 11.080-3.738v-4.62c-4.582 1.618-8.47 4.55-11.080 8.358z"></path><path d="M71.482 34.21c2.695-4.97 7.368-8.805 13.058-10.717v-13.308s-24.835 8.587-24.31 21.009v21.006s1.107-0.384 2.848-1.104c0-0.671 0-1.349 0.080-2.030 0.513-5.766 3.507-11.11 8.324-14.857z"></path><path d="M69.12 42.013c0.13-1.457 0.421-2.898 0.868-4.301-2.998 3.235-4.815 7.25-5.192 11.479-0.037 0.399-0.057 0.798-0.067 1.21 2.072-0.906 3.641-1.678 5.177-2.501l-0.4 0.196c-0.44-2.001-0.57-4.049-0.386-6.083zM70.108 42.089c-0.049 0.511-0.076 1.105-0.076 1.705 0 1.346 0.14 2.66 0.405 3.927l-0.022-0.124c6.785-3.718 14.41-9.462 14.115-16.403v-0.605c-4.848 0.497-9.383 2.437-12.91 5.523-0.778 1.748-1.316 3.775-1.508 5.903l-0.005 0.074z"></path></symbol><symbol id="icon-client-logo-4" viewBox="0 0 106 60"><path d="M24.146 21.103h-0.003c-2.398 0-4.342 1.727-4.342 3.858v0.003c0 2.131 1.944 3.859 4.342 3.859h0.003c2.398 0 4.342-1.728 4.342-3.859v-0.002c0-2.132-1.944-3.86-4.342-3.86zM56.195 19.87c-0.007-2.96-1.333-5.798-3.688-7.891s-5.547-3.272-8.877-3.279c-3.332 0.005-6.526 1.184-8.882 3.277-2.356 2.094-3.682 4.931-3.69 7.892v16.323s25.134-2.488 25.137-16.32v-0.003zM11 41.55c0.006 2.060 0.93 4.033 2.568 5.49s3.859 2.277 6.176 2.283c2.317-0.006 4.537-0.827 6.176-2.283 1.638-1.456 2.562-3.429 2.568-5.488v-11.358s-17.488 1.733-17.488 11.356zM19.744 43.584c-0.453 0-0.895-0.119-1.272-0.343-0.366-0.215-0.655-0.527-0.837-0.901l-0.006-0.012c-0.11-0.228-0.174-0.495-0.174-0.777 0-0.141 0.016-0.278 0.046-0.41l-0.002 0.012c0.088-0.395 0.306-0.758 0.626-1.042 0.32-0.285 0.728-0.479 1.172-0.557 0.135-0.025 0.289-0.039 0.448-0.039 0.314 0 0.615 0.057 0.893 0.16l-0.018-0.006c0.419 0.154 0.776 0.415 1.028 0.75s0.386 0.728 0.386 1.13c0.001 0.268-0.057 0.534-0.172 0.782-0.124 0.26-0.291 0.48-0.494 0.66l-0.002 0.002c-0.212 0.19-0.465 0.34-0.744 0.443-0.261 0.099-0.562 0.156-0.876 0.156-0.001 0-0.001 0-0.002 0h0v-0.008zM37.418 42.464h-1.688v1.743h-0.879v-4.267h2.778v0.712h-1.899v1.102h1.688v0.709zM41.642 42.171c0 0.42-0.074 0.788-0.222 1.104s-0.362 0.56-0.64 0.733c-0.261 0.162-0.577 0.258-0.916 0.258-0.011 0-0.022-0-0.033-0h0.002c-0.354 0-0.67-0.085-0.947-0.255-0.28-0.176-0.501-0.423-0.64-0.717l-0.004-0.010c-0.146-0.309-0.231-0.671-0.231-1.053 0-0.013 0-0.026 0-0.039v0.002-0.21c0-0.42 0.075-0.79 0.225-1.108 0.152-0.32 0.366-0.566 0.642-0.735 0.277-0.172 0.593-0.258 0.949-0.258s0.67 0.086 0.946 0.258c0.278 0.17 0.491 0.415 0.642 0.735 0.152 0.318 0.228 0.686 0.228 1.104v0.19zM40.752 41.977c0-0.447-0.080-0.787-0.24-1.020-0.142-0.211-0.381-0.349-0.652-0.349-0.012 0-0.024 0-0.036 0.001l0.002-0c-0.010-0-0.022-0.001-0.033-0.001-0.27 0-0.507 0.136-0.648 0.344l-0.002 0.003c-0.16 0.229-0.241 0.564-0.243 1.008v0.208c0 0.435 0.080 0.773 0.24 1.013s0.39 0.36 0.692 0.36c0.010 0 0.023 0.001 0.035 0.001 0.268 0 0.504-0.136 0.644-0.343l0.002-0.003c0.158-0.232 0.238-0.57 0.24-1.014v-0.208zM44.492 43.087c0-0.007 0.001-0.016 0.001-0.025 0-0.144-0.068-0.273-0.175-0.354l-0.001-0.001c-0.117-0.090-0.328-0.184-0.633-0.281-0.281-0.088-0.52-0.187-0.749-0.305l0.026 0.012c-0.485-0.262-0.727-0.615-0.727-1.058 0-0.23 0.064-0.436 0.193-0.615 0.131-0.182 0.318-0.323 0.56-0.425 0.244-0.101 0.518-0.152 0.82-0.152 0.305 0 0.576 0.055 0.815 0.167 0.238 0.11 0.423 0.264 0.553 0.466 0.133 0.2 0.2 0.43 0.2 0.685h-0.88c0-0.195-0.060-0.347-0.184-0.454-0.123-0.11-0.296-0.164-0.518-0.164-0.215 0-0.382 0.046-0.501 0.138-0.109 0.078-0.179 0.204-0.179 0.347 0 0.003 0 0.007 0 0.010v-0.001c0 0.139 0.070 0.255 0.208 0.349 0.14 0.093 0.347 0.181 0.618 0.263 0.5 0.15 0.864 0.337 1.093 0.56s0.343 0.5 0.343 0.832c0 0.369-0.14 0.66-0.42 0.87s-0.654 0.314-1.127 0.314c-0.328 0-0.627-0.060-0.897-0.18-0.253-0.108-0.462-0.277-0.615-0.49l-0.003-0.004c-0.132-0.197-0.21-0.439-0.21-0.7 0-0.009 0-0.019 0-0.028v0.001h0.881c0 0.47 0.281 0.706 0.844 0.706 0.209 0 0.372-0.042 0.49-0.126 0.107-0.077 0.175-0.201 0.175-0.34 0-0.006-0-0.012-0-0.017v0.001zM49.183 40.653h-1.306v3.554h-0.88v-3.554h-1.287v-0.712h3.474v0.712zM52.253 42.358h-1.687v1.143h1.98v0.706h-2.859v-4.267h2.854v0.712h-1.975v1.017h1.688v0.688zM54.641 42.645h-0.7v1.562h-0.879v-4.267h1.585c0.504 0 0.893 0.113 1.166 0.337 0.274 0.225 0.41 0.542 0.41 0.952 0 0.291-0.063 0.535-0.19 0.73-0.141 0.205-0.335 0.364-0.563 0.46l-0.008 0.003 0.922 1.743v0.040h-0.943l-0.8-1.56zM53.941 41.933h0.71c0.22 0 0.39-0.055 0.512-0.166 0.112-0.11 0.182-0.264 0.182-0.433 0-0.011-0-0.023-0.001-0.034l0 0.002c0-0.202-0.057-0.36-0.172-0.475s-0.288-0.173-0.525-0.173h-0.706v1.28zM59.267 42.704v1.503h-0.879v-4.267h1.664c0.32 0 0.602 0.059 0.844 0.176 0.244 0.117 0.432 0.284 0.563 0.501 0.13 0.215 0.196 0.46 0.196 0.735 0 0.418-0.144 0.748-0.43 0.99-0.286 0.24-0.681 0.361-1.187 0.361h-0.77zM59.267 41.992h0.785c0.233 0 0.41-0.055 0.53-0.164 0.124-0.11 0.185-0.266 0.185-0.469 0-0.009 0.001-0.021 0.001-0.032 0-0.183-0.070-0.351-0.185-0.476l0 0.001c-0.123-0.128-0.293-0.195-0.51-0.199h-0.806v1.34zM64.827 42.358h-1.687v1.143h1.98v0.706h-2.859v-4.267h2.854v0.712h-1.975v1.017h1.688v0.688zM68.906 40.653h-1.307v3.554h-0.879v-3.554h-1.289v-0.712h3.475v0.712zM71.976 42.358h-1.686v1.143h1.98v0.706h-2.86v-4.267h2.854v0.712h-1.974v1.017h1.687v0.688zM74.364 42.645h-0.7v1.562h-0.88v-4.267h1.586c0.504 0 0.892 0.113 1.166 0.337 0.273 0.225 0.41 0.542 0.41 0.952 0 0.291-0.064 0.535-0.19 0.73-0.141 0.205-0.336 0.364-0.564 0.46l-0.008 0.003 0.923 1.743v0.040h-0.943l-0.8-1.56zM73.664 41.933h0.709c0.22 0 0.391-0.055 0.512-0.166 0.113-0.11 0.183-0.264 0.183-0.434 0-0.011-0-0.022-0.001-0.033l0 0.002c0-0.202-0.057-0.36-0.173-0.475-0.113-0.115-0.288-0.173-0.524-0.173h-0.706v1.28zM78.829 43.088c0-0.007 0.001-0.016 0.001-0.025 0-0.145-0.069-0.274-0.176-0.355l-0.001-0.001c-0.117-0.090-0.328-0.184-0.633-0.281-0.281-0.088-0.52-0.187-0.748-0.305l0.025 0.012c-0.485-0.262-0.727-0.615-0.727-1.058 0-0.23 0.065-0.436 0.193-0.615 0.131-0.182 0.318-0.323 0.56-0.425 0.244-0.101 0.518-0.152 0.82-0.152 0.305 0 0.576 0.055 0.815 0.167 0.238 0.11 0.423 0.264 0.553 0.466 0.133 0.2 0.2 0.43 0.2 0.685h-0.88c0-0.195-0.060-0.347-0.184-0.454-0.123-0.11-0.296-0.164-0.518-0.164-0.215 0-0.382 0.046-0.501 0.138-0.11 0.078-0.18 0.205-0.18 0.348 0 0.003 0 0.006 0 0.010v-0c0 0.139 0.070 0.255 0.209 0.349s0.347 0.181 0.618 0.263c0.5 0.15 0.864 0.337 1.093 0.56s0.343 0.5 0.343 0.832c0 0.369-0.14 0.66-0.42 0.87s-0.655 0.314-1.127 0.314c-0.328 0-0.627-0.060-0.897-0.18-0.253-0.108-0.462-0.277-0.615-0.49l-0.003-0.004c-0.132-0.197-0.21-0.439-0.21-0.7 0-0.009 0-0.019 0-0.028v0.001h0.881c0 0.47 0.281 0.706 0.844 0.706 0.209 0 0.372-0.042 0.489-0.126 0.107-0.077 0.176-0.201 0.176-0.341 0-0.006-0-0.011-0-0.017v0.001z"></path></symbol><symbol id="icon-client-logo-3" viewBox="0 0 106 60"><path d="M36.406 49.101c0.016 0 0.032 0.004 0.046 0.010 0.015 0.006 0.028 0.014 0.039 0.024l-0-0 0.218 0.208c-0.17 0.169-0.379 0.304-0.614 0.396-0.242 0.090-0.522 0.143-0.813 0.143-0.020 0-0.040-0-0.060-0.001l0.003 0c-0.28 0.005-0.558-0.040-0.817-0.133-0.239-0.087-0.445-0.214-0.618-0.375l0.001 0.001c-0.168-0.159-0.302-0.352-0.393-0.567l-0.004-0.011c-0.089-0.213-0.14-0.461-0.14-0.721 0-0.007 0-0.015 0-0.022v0.001c-0-0.011-0-0.025-0-0.038 0-0.509 0.221-0.967 0.572-1.283l0.002-0.001c0.186-0.163 0.409-0.291 0.654-0.377 0.269-0.090 0.555-0.135 0.843-0.132 0.015-0 0.034-0.001 0.052-0.001 0.261 0 0.512 0.044 0.746 0.125l-0.016-0.005c0.216 0.082 0.414 0.195 0.587 0.335l-0.183 0.222c-0.013 0.016-0.028 0.029-0.045 0.040l-0.001 0c-0.018 0.011-0.040 0.017-0.064 0.017-0.004 0-0.007-0-0.011-0l0 0c-0.030-0.001-0.057-0.010-0.081-0.023l0.001 0-0.097-0.060-0.137-0.076c-0.125-0.061-0.269-0.107-0.421-0.131l-0.009-0.001c-0.091-0.015-0.195-0.024-0.301-0.024-0.008 0-0.017 0-0.025 0h0.001c-0.006-0-0.013-0-0.020-0-0.21 0-0.411 0.037-0.597 0.104l0.012-0.004c-0.184 0.065-0.342 0.16-0.476 0.281l0.001-0.001c-0.136 0.128-0.24 0.28-0.308 0.445-0.070 0.168-0.111 0.362-0.111 0.567 0 0.007 0 0.014 0 0.021v-0.001c-0 0.007-0 0.016-0 0.024 0 0.206 0.041 0.403 0.115 0.583l-0.004-0.010c0.067 0.164 0.17 0.314 0.303 0.443 0.125 0.12 0.28 0.215 0.453 0.275 0.178 0.064 0.368 0.096 0.561 0.095 0.111 0.001 0.223-0.005 0.333-0.019 0.278-0.029 0.525-0.14 0.722-0.308l-0.002 0.002c0.028-0.023 0.064-0.037 0.103-0.038h0zM42.704 48.054c0 0.007 0 0.014 0 0.022 0 0.258-0.054 0.504-0.152 0.726l0.005-0.012c-0.097 0.226-0.236 0.417-0.408 0.571l-0.002 0.001c-0.181 0.161-0.396 0.289-0.632 0.371l-0.013 0.004c-0.248 0.084-0.533 0.133-0.829 0.133s-0.582-0.049-0.848-0.138l0.019 0.005c-0.247-0.088-0.46-0.216-0.642-0.379l0.002 0.002c-0.175-0.158-0.315-0.351-0.411-0.567l-0.004-0.011c-0.093-0.218-0.147-0.471-0.147-0.738s0.054-0.52 0.152-0.75l-0.005 0.013c0.093-0.216 0.234-0.413 0.415-0.58 0.182-0.159 0.4-0.282 0.64-0.363 0.247-0.086 0.532-0.135 0.829-0.135s0.582 0.049 0.847 0.141l-0.018-0.005c0.242 0.085 0.461 0.213 0.643 0.376 0.18 0.165 0.32 0.36 0.412 0.571 0.101 0.238 0.151 0.489 0.147 0.742zM42.132 48.054c0-0.009 0-0.020 0-0.031 0-0.202-0.038-0.395-0.108-0.573l0.004 0.011c-0.133-0.341-0.404-0.603-0.743-0.719l-0.009-0.003c-0.18-0.062-0.387-0.097-0.603-0.097s-0.423 0.036-0.616 0.101l0.014-0.004c-0.179 0.064-0.333 0.159-0.462 0.281l0.001-0.001c-0.127 0.121-0.228 0.269-0.292 0.435l-0.003 0.008c-0.066 0.176-0.104 0.38-0.104 0.592s0.038 0.416 0.108 0.604l-0.004-0.012c0.133 0.342 0.406 0.604 0.747 0.718l0.009 0.002c0.388 0.127 0.816 0.127 1.205 0 0.175-0.061 0.332-0.156 0.46-0.277 0.131-0.129 0.23-0.28 0.292-0.443 0.073-0.19 0.108-0.391 0.104-0.592zM47.001 48.675l0.058 0.132c0.021-0.047 0.040-0.090 0.062-0.132 0.024-0.051 0.048-0.094 0.074-0.135l-0.003 0.005 1.393-2.201c0.028-0.038 0.052-0.062 0.080-0.069s0.062-0.012 0.096-0.012c0.007 0 0.013 0 0.019 0l-0.001-0h0.412v3.58h-0.488v-2.743c-0.001-0.019-0.002-0.040-0.002-0.062s0.001-0.043 0.002-0.065l-0 0.003-1.403 2.232c-0.019 0.035-0.047 0.062-0.081 0.080l-0.001 0.001c-0.034 0.019-0.075 0.030-0.118 0.030-0.001 0-0.002 0-0.002 0h-0.079c-0.001 0-0.002 0-0.003 0-0.043 0-0.083-0.011-0.118-0.031l0.001 0.001c-0.035-0.019-0.062-0.047-0.080-0.080l-0.001-0.001-1.443-2.246v2.873h-0.471v-3.572h0.411c0.006-0 0.012-0 0.019-0 0.034 0 0.067 0.005 0.098 0.013l-0.003-0.001c0.034 0.015 0.060 0.039 0.076 0.069l1.423 2.203c0.026 0.037 0.049 0.079 0.069 0.123l0.002 0.005zM52.244 48.497v1.34h-0.544v-3.574h1.216c0.23-0.004 0.458 0.023 0.679 0.078 0.176 0.044 0.34 0.12 0.48 0.223 0.116 0.092 0.209 0.21 0.27 0.344l0.002 0.006c0.065 0.146 0.096 0.302 0.093 0.458 0 0.007 0 0.014 0 0.022 0 0.323-0.154 0.61-0.393 0.791l-0.002 0.002c-0.14 0.107-0.305 0.188-0.483 0.236-0.184 0.053-0.395 0.083-0.614 0.083-0.015 0-0.030-0-0.045-0l-0.658-0.010zM52.244 48.113h0.66c0.143 0.002 0.286-0.017 0.423-0.054 0.117-0.034 0.218-0.087 0.307-0.156l-0.002 0.002c0.153-0.127 0.25-0.317 0.25-0.53 0-0.003 0-0.006-0-0.009v0c0.001-0.011 0.001-0.025 0.001-0.038 0-0.092-0.020-0.178-0.057-0.256l0.002 0.004c-0.046-0.097-0.11-0.179-0.189-0.243l-0.001-0.001c-0.182-0.122-0.406-0.195-0.648-0.195-0.030 0-0.061 0.001-0.090 0.003l0.004-0h-0.66v1.473zM59.573 49.842h-0.43c-0.002 0-0.005 0-0.008 0-0.042 0-0.080-0.012-0.113-0.034l0.001 0c-0.030-0.021-0.055-0.049-0.071-0.082l-0.001-0.001-0.37-0.864h-1.863l-0.384 0.864c-0.034 0.069-0.104 0.116-0.185 0.116-0.002 0-0.004 0-0.006-0h-0.432l1.636-3.58h0.567l1.658 3.58zM56.873 48.513h1.538l-0.648-1.457c-0.050-0.11-0.090-0.222-0.123-0.336l-0.063 0.187c-0.019 0.057-0.040 0.11-0.060 0.152l-0.643 1.454zM61.929 46.28c0.032 0.015 0.060 0.037 0.081 0.063l2.386 2.699v-2.779h0.488v3.58h-0.272c-0.002 0-0.004 0-0.006 0-0.038 0-0.075-0.008-0.108-0.023l0.002 0.001c-0.034-0.017-0.063-0.039-0.088-0.066l-0-0-2.382-2.696c0.001 0.018 0.002 0.040 0.002 0.062s-0.001 0.043-0.002 0.064l0-0.003v2.66h-0.488v-3.58h0.289c0.033 0 0.067 0.006 0.098 0.017zM68.903 48.419v1.421h-0.545v-1.42l-1.508-2.156h0.488c0.004-0 0.008-0 0.012-0 0.039 0 0.075 0.011 0.106 0.031l-0.001-0c0.030 0.024 0.055 0.051 0.074 0.081l0.943 1.391c0.038 0.060 0.071 0.114 0.098 0.166s0.050 0.102 0.069 0.151l0.070-0.154c0.027-0.056 0.058-0.11 0.093-0.163l0.93-1.4c0.020-0.029 0.043-0.054 0.069-0.075l0.001-0.001c0.030-0.022 0.067-0.035 0.108-0.035 0.004 0 0.007 0 0.011 0h0.493l-1.51 2.165zM46.731 40.256c0.237 0.026 0.477 0.047 0.72 0.066 3.679-1.43 6.791-3.77 8.948-6.728s3.261-6.403 3.177-9.904l-4.054-3.522c0.824 3.727 0.438 7.58-1.114 11.128-1.553 3.548-4.21 6.65-7.677 8.96z"></path><path d="M45.284 40.092l0.109 0.020c3.704-2.303 6.527-5.517 8.106-9.228s1.84-7.749 0.75-11.59l-5.775-5.017c2.335 4.124 3.276 8.74 2.71 13.31-0.564 4.57-2.61 8.906-5.9 12.505zM64.868 27.826c-0.981 3.847-3.364 7.316-6.794 9.893-0.937 0.713-1.994 1.382-3.108 1.956l-0.121 0.057c2.794-0.713 5.361-1.974 7.505-3.686s3.807-3.829 4.86-6.187l-2.342-2.033z"></path><path d="M63.949 27.26l-3.334-2.897c-0.064 3.303-1.145 6.531-3.13 9.348s-4.804 5.122-8.16 6.673h0.016c0.748 0 1.495-0.040 2.238-0.116 3.137-1.113 5.909-2.883 8.067-5.153s3.637-4.968 4.303-7.855zM45.766 12.16l-3.978-3.46c-3.556 1.194-6.614 3.293-8.775 6.022-2.16 2.73-3.322 5.961-3.333 9.274 0.013 3.66 1.431 7.212 4.030 10.093 2.597 2.88 6.227 4.927 10.314 5.814 3.648-3.862 5.785-8.634 6.098-13.623 0.313-4.99-1.213-9.935-4.356-14.12zM73.14 26.727c-0.014-4.342-2.006-8.503-5.54-11.574s-8.324-4.801-13.322-4.814c-0.012 0-0.026-0-0.040-0-2.402 0-4.71 0.4-6.862 1.136l0.149-0.044 24.355 21.162c0.794-1.724 1.258-3.741 1.26-5.865v-0.001z"></path></symbol><symbol id="icon-client-logo-2" viewBox="0 0 106 60"><path d="M50.114 5.935h-0.137c-0.21-0.013-0.42-0.018-0.63-0.023h-0.455c-0.397 0-0.802 0.010-1.204 0.030-0.014-0.001-0.029-0.002-0.046-0.002s-0.032 0.001-0.048 0.002l0.002-0c-3.861 0.225-7.446 1.191-10.686 2.757l0.169-0.074-0.432 0.208v22.142l1.012-0.344c0.888-0.305 1.834-0.58 2.813-0.834 2.419-0.647 5.203-1.037 8.072-1.075l0.023-0v2.909c-0.362 0.002-0.713 0.012-1.065 0.030h-0.084c-2.273 0.128-4.403 0.469-6.453 1.006l0.225-0.050c-2.818 0.717-5.288 1.707-7.583 2.975l0.163-0.083v-28.397c2.241-1.332 4.834-2.418 7.579-3.121l0.206-0.045c2.199-0.591 4.725-0.936 7.33-0.946h0.433c0.511 0.013 1.010 0.036 1.478 0.071 1.233 0.087 2.456 0.282 3.655 0.583v2.863c-1.020-0.25-2.23-0.44-3.467-0.53l-0.074-0.004-0.073-0.006c-0.247-0.021-0.494-0.042-0.724-0.042zM55.153 8.861c0.635 0.049 1.293 0.072 1.958 0.072 2.745-0.011 5.401-0.371 7.932-1.039l-0.219 0.049c2.817-0.719 5.285-1.71 7.58-2.976l-0.164 0.083v27.89c-2.241 1.331-4.834 2.417-7.579 3.121l-0.207 0.045c-2.199 0.589-4.725 0.933-7.33 0.944h-0.007c-0.054 0-0.117 0.001-0.18 0.001-1.912 0-3.768-0.24-5.54-0.69l0.155 0.033v-28.072c0.43 0.1 0.873 0.191 1.323 0.267 0.739 0.125 1.518 0.216 2.277 0.272zM69.347 9.078l-1.012 0.34c-0.93 0.313-1.87 0.593-2.813 0.842-2.52 0.674-5.415 1.067-8.399 1.078h-0.007c-0.66 0-1.267-0.018-1.854-0.056l-0.807-0.053v22.777l0.693 0.060c0.642 0.057 1.305 0.085 1.973 0.085 2.357-0.010 4.636-0.322 6.808-0.899l-0.188 0.042c1.985-0.504 3.707-1.141 5.339-1.932l-0.165 0.072 0.432-0.208v-22.148z"></path><path d="M35.737 45.212c-0.272-0.281-0.652-0.456-1.073-0.456-0.019 0-0.037 0-0.055 0.001l0.003-0c-0.007-0-0.015-0-0.023-0-0.226 0-0.442 0.045-0.638 0.126l0.011-0.004c-0.384 0.154-0.682 0.455-0.829 0.832l-0.003 0.010c-0.080 0.2-0.119 0.413-0.116 0.628v3.794c-0.010 0.267 0.042 0.533 0.149 0.778 0.090 0.195 0.219 0.368 0.38 0.509 0.151 0.127 0.329 0.22 0.52 0.27 0.185 0.051 0.376 0.078 0.567 0.078 0.211 0.002 0.42-0.043 0.612-0.132 0.569-0.253 0.959-0.813 0.96-1.465v-0.424h-0.993v0.338c0 0.007 0 0.015 0 0.023 0 0.113-0.021 0.222-0.060 0.321l0.002-0.006c-0.034 0.084-0.083 0.155-0.144 0.214l-0 0c-0.114 0.088-0.258 0.142-0.414 0.145h-0.001c-0.017 0.002-0.038 0.003-0.058 0.003-0.167 0-0.314-0.081-0.406-0.206l-0.001-0.001c-0.083-0.134-0.133-0.296-0.133-0.47 0-0.013 0-0.027 0.001-0.040l-0 0.002v-3.538c-0.006-0.196 0.036-0.39 0.122-0.567 0.092-0.141 0.248-0.232 0.426-0.232 0.021 0 0.041 0.001 0.061 0.004l-0.002-0c0.006-0 0.012-0 0.019-0 0.173 0 0.327 0.084 0.423 0.213l0.001 0.001c0.103 0.134 0.164 0.304 0.164 0.488 0 0.008-0 0.015-0 0.022v-0.001 0.328h0.982v-0.387c0-0.005 0-0.011 0-0.017 0-0.233-0.044-0.455-0.125-0.659l0.004 0.012c-0.078-0.207-0.19-0.385-0.333-0.535l0.001 0.001zM41.629 45.17c-0.302-0.257-0.696-0.415-1.127-0.418h-0.001c-0.202 0-0.403 0.037-0.592 0.107-0.409 0.147-0.732 0.448-0.905 0.831l-0.004 0.010c-0.1 0.231-0.15 0.482-0.145 0.735v3.638c-0.007 0.256 0.043 0.51 0.145 0.745 0.090 0.196 0.22 0.37 0.384 0.509 0.152 0.14 0.33 0.25 0.524 0.32 0.19 0.070 0.39 0.106 0.592 0.107 0.433-0.001 0.829-0.163 1.13-0.429l-0.002 0.002c0.158-0.142 0.285-0.315 0.374-0.509 0.102-0.234 0.151-0.489 0.145-0.745v-3.639c0-0.009 0-0.021 0-0.032 0-0.254-0.053-0.495-0.15-0.714l0.004 0.011c-0.092-0.208-0.219-0.384-0.373-0.531l-0.001-0.001zM41.166 50.074c0.002 0.017 0.002 0.036 0.002 0.056 0 0.185-0.076 0.352-0.199 0.471l-0 0c-0.125 0.106-0.289 0.17-0.467 0.17s-0.342-0.064-0.468-0.171l0.001 0.001c-0.123-0.118-0.2-0.285-0.2-0.469 0-0.021 0.001-0.041 0.003-0.061l-0 0.003v-3.639c-0.002-0.017-0.002-0.036-0.002-0.056 0-0.184 0.076-0.351 0.199-0.47l0-0c0.125-0.106 0.289-0.17 0.467-0.17s0.342 0.064 0.468 0.171l-0.001-0.001c0.123 0.119 0.199 0.285 0.199 0.469 0 0.020-0.001 0.040-0.003 0.059l0-0.003v3.64zM49.367 51.7v-6.89h-0.953l-1.253 3.647h-0.017l-1.263-3.646h-0.943v6.888h0.984v-4.19h0.018l0.963 2.962h0.491l0.971-2.962h0.018v4.19h0.984zM54.958 45.294c-0.151-0.17-0.343-0.3-0.556-0.377-0.202-0.068-0.434-0.107-0.676-0.107-0.013 0-0.027 0-0.040 0h-1.46v6.89h0.982v-2.691h0.505c0.307 0.014 0.611-0.051 0.886-0.188 0.225-0.127 0.408-0.305 0.535-0.52l0.004-0.007c0.113-0.183 0.19-0.387 0.225-0.6 0.034-0.217 0.053-0.467 0.053-0.721 0-0.022-0-0.043-0-0.065l0 0.003c0.010-0.33-0.023-0.662-0.096-0.984-0.069-0.248-0.195-0.461-0.362-0.633l0 0zM54.452 47.394c-0.004 0.132-0.038 0.254-0.093 0.364l0.002-0.005c-0.057 0.106-0.144 0.189-0.25 0.24l-0.003 0.001c-0.121 0.056-0.263 0.088-0.412 0.088-0.018 0-0.036-0-0.053-0.001l0.002 0h-0.448v-2.342h0.506c0.014-0.001 0.031-0.001 0.047-0.001 0.144 0 0.28 0.032 0.402 0.090l-0.006-0.002c0.101 0.059 0.181 0.146 0.229 0.251l0.001 0.003c0.054 0.121 0.083 0.252 0.086 0.384v0.458c0 0.16 0.010 0.326 0 0.473h-0.010zM59.608 44.81h-0.805l-1.518 6.89h0.982l0.288-1.48h1.339l0.288 1.48h0.981l-1.555-6.89zM58.702 49.281l0.483-2.497h0.018l0.48 2.497h-0.981zM65.95 48.96h-0.018l-1.482-4.15h-0.944v6.89h0.981v-4.143h0.020l1.5 4.142h0.924v-6.888h-0.981v4.15zM71.948 44.81l-0.79 2.74h-0.020l-0.79-2.74h-1.038l1.348 3.978v2.911h0.982v-2.911l1.348-3.977h-1.040zM33 53.645h0.473v1.327h0.321v-1.328h0.47v-0.272h-1.264v0.273zM36.977 53.372l-0.62 1.6h0.341l0.132-0.364h0.638l0.136 0.364h0.35l-0.636-1.6h-0.341zM36.927 54.339l0.217-0.593 0.217 0.593h-0.435zM40.908 54.382h0.37v0.206c-0.103 0.083-0.236 0.134-0.38 0.135h-0c-0.007 0-0.015 0.001-0.023 0.001-0.128 0-0.242-0.060-0.316-0.153l-0.001-0.001c-0.074-0.106-0.119-0.239-0.119-0.381 0-0.013 0-0.025 0.001-0.038l-0 0.002c0-0.356 0.154-0.534 0.46-0.534 0.010-0.001 0.022-0.002 0.035-0.002 0.158 0 0.29 0.108 0.327 0.254l0 0.002 0.316-0.062c-0.068-0.312-0.293-0.47-0.678-0.47-0.006-0-0.014-0-0.021-0-0.207 0-0.396 0.078-0.538 0.207l0.001-0.001c-0.143 0.142-0.232 0.338-0.232 0.555 0 0.021 0.001 0.042 0.002 0.062l-0-0.003c-0.001 0.011-0.001 0.024-0.001 0.037 0 0.215 0.078 0.412 0.207 0.564l-0.001-0.001c0.141 0.146 0.339 0.237 0.558 0.237 0.017 0 0.034-0.001 0.052-0.002l-0.002 0c0.008 0 0.017 0 0.026 0 0.252 0 0.481-0.097 0.653-0.256l-0.001 0.001v-0.63h-0.693v0.27zM44.923 53.372h-0.324v1.6h1.12v-0.272h-0.796v-1.328zM48.318 53.372h-0.324v1.6h0.324v-1.6zM51.636 54.44l-0.655-1.068h-0.313v1.6h0.3v-1.045l0.643 1.045h0.322v-1.6h-0.297v1.069zM54.637 54.267h0.797v-0.272h-0.797v-0.35h0.857v-0.273h-1.181v1.6h1.214v-0.272h-0.89v-0.433zM61.912 54.003h-0.63v-0.63h-0.32v1.599h0.32v-0.7h0.63v0.7h0.322v-1.6h-0.322v0.631zM64.93 54.267h0.8v-0.272h-0.8v-0.35h0.86v-0.273h-1.18v1.6h1.212v-0.272h-0.89v-0.433zM69.023 54.268c0.279-0.044 0.42-0.191 0.42-0.445 0.002-0.013 0.003-0.029 0.003-0.045 0-0.128-0.062-0.241-0.158-0.31l-0.001-0.001c-0.118-0.061-0.258-0.096-0.406-0.096-0.022 0-0.044 0.001-0.065 0.002l0.003-0h-0.678v1.599h0.322v-0.669h0.063c0.008-0 0.017-0.001 0.026-0.001 0.063 0 0.123 0.014 0.177 0.038l-0.003-0.001c0.047 0.029 0.086 0.069 0.114 0.117l0.349 0.508h0.384l-0.195-0.312c-0.088-0.156-0.207-0.285-0.35-0.382l-0.004-0.003zM68.699 54.046h-0.237v-0.401h0.253c0.020-0.002 0.044-0.003 0.068-0.003 0.092 0 0.181 0.015 0.264 0.042l-0.006-0.002c0.043 0.039 0.070 0.094 0.070 0.156 0 0.069-0.033 0.13-0.084 0.168l-0.001 0c-0.080 0.025-0.172 0.040-0.267 0.040-0.021 0-0.042-0.001-0.063-0.002l0.003 0zM72.11 54.267h0.796v-0.272h-0.796v-0.35h0.86v-0.273h-1.184v1.6h1.214v-0.272h-0.89v-0.433z"></path></symbol><symbol id="icon-client-logo-1" viewBox="0 0 106 60"><path d="M38 7l7.008 6.634-13.008-0.008v32.188h34v-12.307l7 6.627v-33.134h-35zM65.692 32.728l-19.87-18.81h19.87v18.81zM59.523 41.105h-22.143v-21.646h1.565v20.181h20.578v1.465zM42.61 50.1l-0.818 1.685-0.818-1.685h-0.686l1.194 2.246v1.309h0.62v-1.309l1.191-2.246h-0.683zM43.638 53.655l0.288-0.828h1.377l0.29 0.828h0.645l-1.345-3.555h-0.555l-1.342 3.555h0.642zM44.614 50.855l0.515 1.474h-1.030l0.515-1.475zM47.871 52.244c-0.084 0.125-0.134 0.279-0.134 0.445 0 0.002 0 0.004 0 0.006v-0c0 0.3 0.105 0.543 0.315 0.73 0.211 0.186 0.493 0.279 0.844 0.279s0.655-0.096 0.909-0.286l0.2 0.237h0.688l-0.522-0.618c0.205-0.28 0.307-0.639 0.307-1.077h-0.515c0 0.24-0.050 0.457-0.149 0.652l-0.686-0.81 0.242-0.176c0.147-0.1 0.27-0.223 0.366-0.366l0.003-0.005c0.070-0.115 0.112-0.255 0.112-0.404 0-0.002 0-0.004 0-0.006v0c0-0.004 0-0.009 0-0.014 0-0.219-0.096-0.415-0.248-0.549l-0.001-0.001c-0.158-0.143-0.369-0.231-0.6-0.231-0.012 0-0.025 0-0.037 0.001l0.002-0c-0.286 0-0.514 0.082-0.683 0.244s-0.254 0.381-0.254 0.66c0 0.114 0.027 0.231 0.080 0.354 0.056 0.122 0.153 0.27 0.29 0.444-0.263 0.189-0.44 0.352-0.529 0.49zM49.475 53.030c-0.152 0.123-0.348 0.198-0.561 0.2h-0c-0.009 0-0.019 0.001-0.029 0.001-0.153 0-0.292-0.059-0.397-0.155l0 0c-0.098-0.097-0.159-0.231-0.159-0.38 0-0.007 0-0.014 0-0.021l-0 0.001c0-0.19 0.098-0.36 0.293-0.508l0.076-0.054 0.776 0.916zM48.838 51.455c-0.168-0.207-0.252-0.378-0.252-0.515 0-0.119 0.035-0.217 0.103-0.295 0.064-0.073 0.157-0.118 0.261-0.118 0.005 0 0.010 0 0.015 0h-0.001c0.004-0 0.008-0 0.013-0 0.098 0 0.187 0.038 0.253 0.1l-0-0c0.070 0.066 0.105 0.145 0.105 0.237 0 0.004 0 0.008 0 0.013 0 0.132-0.058 0.251-0.151 0.332l-0.001 0-0.076 0.060-0.271 0.186zM54.624 53.386c0.244-0.213 0.384-0.51 0.42-0.888h-0.615c-0.033 0.254-0.11 0.435-0.232 0.544s-0.305 0.164-0.547 0.164c-0.265 0-0.467-0.101-0.605-0.303s-0.206-0.495-0.206-0.88v-0.314c0.004-0.38 0.077-0.666 0.22-0.862 0.145-0.197 0.352-0.295 0.62-0.295 0.231 0 0.406 0.057 0.525 0.17s0.195 0.297 0.225 0.552h0.615c-0.040-0.389-0.178-0.69-0.417-0.903s-0.555-0.32-0.948-0.32c-0.291 0-0.548 0.070-0.771 0.208-0.223 0.143-0.399 0.344-0.507 0.582l-0.003 0.008c-0.113 0.249-0.179 0.539-0.179 0.846 0 0.015 0 0.029 0 0.044l-0-0.002v0.332c0.005 0.327 0.066 0.614 0.183 0.862s0.284 0.438 0.498 0.573c0.217 0.134 0.467 0.2 0.75 0.2 0.405 0 0.73-0.105 0.974-0.317zM58.254 52.888c0.12-0.264 0.181-0.57 0.181-0.918v-0.197c0-0.011 0-0.025 0-0.038 0-0.316-0.068-0.616-0.191-0.887l0.006 0.013c-0.113-0.251-0.292-0.455-0.514-0.597l-0.006-0.003c-0.224-0.14-0.48-0.21-0.77-0.21s-0.546 0.070-0.771 0.212c-0.223 0.14-0.396 0.342-0.52 0.608-0.116 0.257-0.183 0.558-0.183 0.874 0 0.015 0 0.031 0 0.046l-0-0.002v0.2c0.002 0.34 0.063 0.64 0.185 0.9 0.124 0.261 0.298 0.462 0.523 0.604 0.226 0.14 0.483 0.21 0.771 0.21 0.292 0 0.549-0.070 0.772-0.21 0.224-0.142 0.397-0.344 0.517-0.606zM57.593 50.878c0.15 0.21 0.224 0.513 0.224 0.907v0.185c0 0.4-0.074 0.705-0.222 0.913-0.146 0.209-0.356 0.313-0.63 0.313-0.008 0-0.017 0-0.025 0-0.252 0-0.474-0.126-0.607-0.318l-0.002-0.002c-0.152-0.213-0.227-0.515-0.227-0.906v-0.205c0.003-0.382 0.080-0.678 0.229-0.886 0.134-0.192 0.353-0.315 0.601-0.315 0.009 0 0.018 0 0.027 0l-0.001-0c0.274 0 0.485 0.105 0.633 0.315z"></path></symbol><symbol id="icon-close" viewBox="0 0 11 11"><path d="M11 1.108 9.892 0 5.5 4.392 1.108 0 0 1.108 4.392 5.5 0 9.892 1.108 11 5.5 6.608 9.892 11 11 9.892 6.608 5.5 11 1.108z"/></symbol><symbol id="icon-send" viewBox="0 0 24 24"><path d="M24 0l-24 13.5 7.67 2.84 11.83-11.090-8.998 12.14 0.007 0.002-0.009-0.002v6.61l4.301-5.018 5.45 2.018 3.749-21z"></path></symbol><symbol id="icon-person" viewBox="0 0 12 12"><path d="M6 6c1.657 0 3-1.343 3-3s-1.343-3-3-3v0c-1.657 0-3 1.343-3 3s1.343 3 3 3v0zM6 7.5c-2.002 0-6 1.005-6 3v0.75c0 0.412 0.338 0.75 0.75 0.75h10.5c0.412 0 0.75-0.338 0.75-0.75v-0.75c0-1.995-3.998-3-6-3z"></path></symbol><symbol id="icon-phone" viewBox="0 0 13 13"><path d="M11.139 8.471l-1.707-0.195c-0.047-0.006-0.101-0.009-0.157-0.009-0.369 0-0.704 0.15-0.946 0.392l-1.237 1.237c-1.917-0.989-3.44-2.513-4.402-4.373l-0.027-0.056 1.244-1.242c0.242-0.242 0.392-0.576 0.392-0.946 0-0.055-0.003-0.11-0.010-0.163l0.001 0.006-0.195-1.694c-0.081-0.672-0.648-1.189-1.335-1.189-0.001 0-0.001 0-0.002 0h-1.162c-0.76-0.002-1.391 0.63-1.345 1.388 0.357 5.739 4.947 10.322 10.679 10.679 0.759 0.046 1.391-0.585 1.391-1.345v-1.163c0-0.002 0-0.004 0-0.006 0-0.683-0.514-1.246-1.177-1.323l-0.006-0.001z"></path></symbol><symbol id="icon-mail" viewBox="0 0 15 12"><path d="M14 0h-12c-0.825 0-1.493 0.675-1.493 1.5l-0.007 9c0 0.825 0.675 1.5 1.5 1.5h12c0.825 0 1.5-0.675 1.5-1.5v-9c0-0.825-0.675-1.5-1.5-1.5zM13.7 3.188l-5.302 3.314c-0.113 0.071-0.25 0.112-0.397 0.112s-0.284-0.042-0.401-0.114l0.003 0.002-5.303-3.315c-0.189-0.113-0.313-0.316-0.313-0.549 0-0.352 0.285-0.637 0.637-0.637 0.131 0 0.252 0.039 0.354 0.107l-0.002-0.001 5.025 3.143 5.025-3.143c0.099-0.066 0.22-0.106 0.351-0.106 0.352 0 0.637 0.285 0.637 0.637 0 0.232-0.124 0.436-0.31 0.547l-0.003 0.002z"></path></symbol><symbol id="icon-check" viewBox="0 0 19 15"><path stroke-width=".3" d="m2.936 7.128-.104-.099-.104.098-1.446 1.371.114.109 5.347 5.1.104-.099 11.37-10.846-.114-.108-1.426-1.361-.104.099-9.829 9.369-3.809-3.633z"/></symbol></defs></svg>